HIERARCHY
ROOT Hips
{
    OFFSET 0.000000 0.000000 0.000000
    CHANNELS 6 Xposition Yposition Zposition Zrotation Xrotation Yrotation
    JOINT Spine
    {
        OFFSET -0.000000 14.517291 0.000000
        CHANNELS 3 Zrotation Xrotation Yrotation
        JOINT Spine1
        {
            OFFSET -0.000000 37.558300 0.000000
            CHANNELS 3 Zrotation Xrotation Yrotation
            JOINT Neck
            {
                OFFSET -0.000000 37.404057 3.400369
                CHANNELS 3 Zrotation Xrotation Yrotation
                JOINT Head
                {
                    OFFSET -0.000000 24.785618 -3.540803
                    CHANNELS 3 Zrotation Xrotation Yrotation
                    End Site
                    {
                        OFFSET -0.000000 35.408028 0.000000
                    }
                }
            }
            JOINT LeftShoulder
            {
                OFFSET 6.992933 33.973492 -0.192664
                CHANNELS 3 Zrotation Xrotation Yrotation
                JOINT LeftArm
                {
                    OFFSET 21.527611 0.000000 0.000000
                    CHANNELS 3 Zrotation Xrotation Yrotation
                    JOINT LeftForeArm
                    {
                        OFFSET 56.353916 0.000000 0.000000
                        CHANNELS 3 Zrotation Xrotation Yrotation
                        JOINT LeftHand
                        {
                            OFFSET 47.774071 0.000000 0.000000
                            CHANNELS 3 Zrotation Xrotation Yrotation
                            End Site
                            {
                                OFFSET 26.556021 0.000000 0.000000
                            }
                        }
                    }
                }
            }
            JOINT RightShoulder
            {
                OFFSET -7.065357 33.973492 -0.192664
                CHANNELS 3 Zrotation Xrotation Yrotation
                JOINT RightArm
                {
                    OFFSET -21.527611 0.000000 0.000000
                    CHANNELS 3 Zrotation Xrotation Yrotation
                    JOINT RightForeArm
                    {
                        OFFSET -56.353916 0.000000 0.000000
                        CHANNELS 3 Zrotation Xrotation Yrotation
                        JOINT RightHand
                        {
                            OFFSET -47.774071 0.000000 0.000000
                            CHANNELS 3 Zrotation Xrotation Yrotation
                            End Site
                            {
                                OFFSET -26.556021 0.000000 0.000000
                            }
                        }
                    }
                }
            }
        }
    }
    JOINT LeftUpLeg
    {
        OFFSET 17.704014 0.000000 0.000000
        CHANNELS 3 Zrotation Xrotation Yrotation
        JOINT LeftLeg
        {
            OFFSET -0.000000 -81.181816 0.000000
            CHANNELS 3 Zrotation Xrotation Yrotation
            JOINT LeftFoot
            {
                OFFSET -0.000000 -62.821102 0.000000
                CHANNELS 3 Zrotation Xrotation Yrotation
                JOINT LeftToeBase
                {
                    OFFSET -0.000000 -11.507608 26.556021
                    CHANNELS 3 Zrotation Xrotation Yrotation
                    End Site
                    {
                        OFFSET -0.000000 0.000000 7.081605
                    }
                }
            }
        }
    }
    JOINT RightUpLeg
    {
        OFFSET -17.704014 0.000000 0.000000
        CHANNELS 3 Zrotation Xrotation Yrotation
        JOINT RightLeg
        {
            OFFSET -0.000000 -81.181816 0.000000
            CHANNELS 3 Zrotation Xrotation Yrotation
            JOINT RightFoot
            {
                OFFSET -0.000000 -62.821102 0.000000
                CHANNELS 3 Zrotation Xrotation Yrotation
                JOINT RightToeBase
                {
                    OFFSET -0.000000 -11.507608 26.556021
                    CHANNELS 3 Zrotation Xrotation Yrotation
                    End Site
                    {
                        OFFSET -0.000000 0.000000 7.081605
                    }
                }
            }
        }
    }
}
MOTION
Frames:    4
Frame Time:    0.008333
-10.564952    151.363953    -13.377814    -0.638172    0.663394    24.571810    -3.284215    0.218527    6.702377    -2.248499    3.535563    2.304203    -7.011543    -9.223510    -15.217319    18.606985    7.339666    -12.812197    9.791245    -3.025085    -14.063692    -29.898968    17.784550    -64.874084    -5.394933    -37.119324    -117.179649    -3.509248    -43.586628    -11.684519    -13.161793    -0.116632    8.310653    22.997019    -21.245523    56.455547    -8.320761    -21.430561    12.563116    11.860699    -16.376041    40.786869    1.331131    -34.889168    -27.869659    -10.257813    21.846628    -22.605904    -11.233828    4.079260    28.669668    0.000000    0.000000    0.000000    4.942285    10.876456    -14.775373    3.212114    24.507664    -1.149075    -4.129364    -31.298145    -7.618001    0.000000    0.000000    0.000000    
-10.593468    151.373535    -13.361819    -0.641871    0.676323    24.590418    -3.260453    0.205037    6.746925    -2.233342    3.519334    2.318392    -7.072766    -9.147315    -15.231530    18.626635    7.308781    -12.811036    9.655421    -2.889008    -13.969754    -30.103106    18.242298    -63.704792    -5.982819    -35.936863    -117.903748    -2.980689    -43.376522    -11.134746    -13.205959    -0.055483    8.290577    22.976446    -21.241858    56.419918    -8.366577    -21.472071    12.585664    11.877006    -16.406330    40.787914    1.334675    -34.891155    -27.859713    -10.247165    21.822842    -22.632826    -11.244981    4.097171    28.683283    0.000000    0.000000    0.000000    4.956223    10.884978    -14.793369    3.212856    24.463074    -1.136691    -4.121175    -31.271229    -7.603615    0.000000    0.000000    0.000000    
-10.619615    151.384033    -13.347276    -0.647669    0.684444    24.606274    -3.224468    0.197362    6.793789    -2.224973    3.484800    2.333111    -7.136730    -9.045786    -15.240625    18.649973    7.285855    -12.806537    9.507906    -2.728508    -13.910811    -30.375162    18.695578    -62.351303    -6.530214    -34.671574    -118.605568    -2.780478    -43.046444    -10.931853    -13.242514    0.005404    8.290699    23.003866    -21.303869    56.384480    -8.323475    -21.451580    12.630045    11.823492    -16.408211    40.768208    1.338650    -34.890217    -27.844891    -10.231918    21.805162    -22.662840    -11.240669    4.116253    28.697985    0.000000    0.000000    0.000000    4.975712    10.897872    -14.831811    3.211322    24.410433    -1.158444    -4.108875    -31.243221    -7.563144    0.000000    0.000000    0.000000    
-10.643679    151.392792    -13.336204    -0.652547    0.692856    24.625511    -3.187570    0.190124    6.831174    -2.228987    3.471744    2.345534    -7.152844    -9.022117    -15.230692    18.609711    7.309835    -12.800932    9.391748    -2.612126    -13.855834    -30.640188    19.112085    -61.067230    -7.067474    -33.490997    -119.248848    -2.532270    -42.813744    -10.447164    -13.241461    -0.027735    8.296217    22.971342    -21.260927    56.312523    -8.342977    -21.469145    12.644350    11.817353    -16.427282    40.751793    1.341525    -34.887558    -27.826366    -10.206519    21.782454    -22.703768    -11.244554    4.136560    28.684219    0.000000    0.000000    0.000000    4.987616    10.910771    -14.863155    3.217086    24.362116    -1.153056    -4.099019    -31.218933    -7.537159    0.000000    0.000000    0.000000    
